<svg width="15" height="13" viewBox="0 0 15 13" fill="none" xmlns="http://www.w3.org/2000/svg">
<path d="M14.6048 0.217392C14.4863 0.121108 14.3475 0.0542193 14.1994 0.0219755C14.0513 -0.0102683 13.8979 -0.0069906 13.7513 0.0315514L8.28242 1.4698V13L14.2571 11.4325C14.4708 11.3765 14.66 11.2491 14.7947 11.0705C14.9293 10.8918 15.0016 10.6722 15 10.4467V1.00924C14.9975 0.855175 14.9607 0.703725 14.8922 0.566477C14.8237 0.429228 14.7254 0.30982 14.6048 0.217392ZM6.70182 1.4698L1.21714 0.0315514C1.07274 -0.00263176 0.922738 -0.0036957 0.777896 0.0284364C0.633053 0.0605685 0.496969 0.125099 0.379418 0.217392C0.259631 0.313142 0.16308 0.43587 0.097283 0.576017C0.0314859 0.716165 -0.00178089 0.86995 7.34793e-05 1.0254V10.4467C0.000240116 10.6708 0.0733257 10.8886 0.20782 11.0656C0.342314 11.2426 0.530576 11.3688 0.742956 11.4244L6.70182 13V1.4698Z" fill="#ACAFC1"/>
</svg>
